<?xml version="1.0" standalone="no"?>
<svg version="1.0" xmlns="http://www.w3.org/2000/svg"
 width="840.000000pt" height="844.000000pt" viewBox="0 0 840.000000 844.000000"
 preserveAspectRatio="xMidYMid meet">

<g transform="translate(0.000000,844.000000) scale(0.100000,-0.100000)"
fill="#fff" stroke="none">
<path d="M2870 6740 c-8 -5 -40 -17 -70 -26 -30 -9 -59 -19 -65 -24 -5 -4 -26
-10 -45 -14 -19 -3 -47 -12 -61 -20 -14 -7 -43 -16 -65 -20 -21 -4 -52 -14
-69 -21 -16 -8 -50 -19 -75 -25 -25 -7 -49 -15 -55 -20 -5 -4 -32 -13 -60 -19
-27 -7 -54 -16 -60 -20 -5 -5 -32 -14 -60 -20 -27 -7 -54 -16 -60 -20 -5 -5
-32 -14 -60 -20 -27 -7 -54 -16 -60 -20 -5 -5 -32 -14 -60 -20 -27 -7 -54 -16
-60 -20 -5 -5 -32 -14 -60 -20 -27 -7 -54 -16 -60 -20 -5 -5 -32 -14 -60 -20
-27 -7 -54 -16 -60 -20 -5 -5 -34 -14 -63 -21 -28 -6 -54 -16 -57 -20 -3 -5
-23 -11 -44 -15 -26 -4 -49 -17 -70 -40 l-31 -34 1 -2618 c0 -2462 1 -2620 18
-2647 9 -17 40 -42 69 -57 28 -14 63 -34 76 -43 14 -9 32 -16 41 -16 8 0 15
-4 15 -8 0 -8 21 -21 120 -73 25 -13 46 -27 48 -31 2 -5 12 -8 23 -8 10 0 19
-3 19 -7 0 -5 25 -19 55 -33 30 -14 55 -28 55 -32 0 -5 9 -8 20 -8 11 0 20 -4
20 -8 0 -5 12 -15 27 -22 16 -8 40 -22 55 -32 14 -10 33 -18 42 -18 9 0 16 -4
16 -10 0 -5 7 -10 15 -10 8 0 15 -4 15 -10 0 -5 9 -10 20 -10 11 0 20 -3 20
-8 0 -4 15 -13 33 -21 17 -8 44 -22 59 -33 14 -10 33 -18 42 -18 9 0 16 -4 16
-8 0 -8 23 -22 122 -74 24 -13 45 -26 46 -30 2 -5 11 -8 20 -8 10 0 28 -9 42
-20 14 -11 30 -20 35 -20 6 0 21 -9 35 -20 14 -11 33 -20 43 -20 9 0 17 -4 17
-8 0 -5 21 -20 48 -33 26 -13 49 -27 50 -31 2 -5 12 -8 22 -8 10 0 20 -3 22
-7 2 -5 24 -19 50 -32 48 -24 88 -56 88 -69 0 -17 63 -34 103 -27 23 4 89 11
147 16 58 5 139 13 180 19 41 6 122 15 180 20 58 5 137 15 175 20 39 6 117 15
175 20 58 5 139 14 180 20 41 6 120 15 175 20 55 5 136 14 180 20 44 6 125 15
180 20 55 6 134 14 175 20 41 6 122 15 180 20 58 5 139 14 180 20 41 5 120 15
175 20 55 5 134 14 175 20 41 5 122 15 180 20 58 6 139 15 180 20 41 6 122 15
180 20 58 6 137 15 175 20 39 6 117 15 175 20 58 5 137 14 175 20 39 5 115 14
170 19 161 16 205 23 205 32 0 5 7 9 16 9 9 0 18 9 21 20 3 11 9 20 14 20 5 0
9 494 9 1156 0 1090 -1 1158 -17 1170 -25 18 -33 17 -33 -5 0 -25 -29 -93 -45
-106 -14 -10 -22 -105 -17 -222 1 -48 6 -63 17 -63 8 0 15 -2 15 -4 0 -2 4
-26 10 -55 14 -73 14 -569 1 -674 -7 -48 -18 -102 -26 -120 -18 -42 -45 -125
-53 -162 -5 -24 -9 -14 -18 50 -10 67 -11 7 -11 -377 1 -337 -2 -461 -11 -470
-11 -11 -80 -21 -267 -38 -55 -5 -134 -14 -175 -20 -41 -6 -122 -15 -180 -20
-58 -6 -139 -15 -180 -20 -41 -6 -122 -15 -180 -20 -58 -5 -139 -14 -180 -20
-41 -5 -120 -15 -175 -20 -55 -5 -134 -14 -175 -20 -41 -5 -122 -15 -180 -20
-58 -6 -139 -15 -180 -20 -41 -6 -122 -15 -180 -20 -58 -6 -139 -15 -180 -21
-41 -5 -120 -14 -175 -19 -55 -5 -134 -14 -175 -20 -41 -6 -122 -15 -180 -20
-58 -6 -139 -14 -180 -20 -41 -5 -122 -15 -180 -20 -58 -6 -136 -15 -175 -21
-38 -5 -115 -14 -170 -19 -55 -5 -133 -12 -172 -16 l-73 -6 0 3216 0 3217 73
-6 c39 -3 101 -10 137 -15 36 -5 160 -14 275 -20 116 -6 235 -15 265 -20 30
-5 152 -14 270 -20 118 -6 238 -15 265 -20 28 -5 149 -14 270 -20 121 -6 245
-15 275 -20 51 -9 296 -27 680 -51 85 -5 202 -13 260 -19 58 -5 218 -16 355
-24 138 -9 269 -20 293 -26 23 -5 70 -10 105 -10 34 0 92 -3 130 -7 l67 -6 2
-2016 c2 -1518 4 -1790 8 -1101 3 655 8 921 16 935 7 11 15 39 19 63 4 26 11
41 18 39 7 -2 20 2 29 10 15 13 18 12 33 -11 10 -14 21 -23 26 -20 5 3 9 0 9
-5 0 -6 5 -11 10 -11 7 0 10 378 10 1115 l0 1116 -30 29 c-26 25 -39 30 -83
30 -29 0 -69 5 -91 9 -21 5 -131 14 -245 20 -113 6 -240 16 -281 21 -41 6
-181 18 -310 26 -129 8 -280 19 -335 24 -55 5 -172 14 -260 19 -88 6 -207 15
-265 20 -58 6 -179 15 -270 21 -91 5 -210 14 -265 20 -55 5 -174 14 -265 20
-91 6 -205 15 -255 19 -126 13 -1176 13 -1195 1z m50 -3315 c0 -1724 -3 -3135
-6 -3135 -14 0 -74 33 -74 41 0 5 -8 9 -17 9 -10 0 -29 9 -43 20 -14 11 -33
20 -42 20 -10 0 -18 4 -18 8 0 5 -21 20 -47 33 -27 13 -50 27 -51 32 -2 4 -12
7 -22 7 -10 0 -20 3 -22 8 -1 4 -22 17 -45 30 -24 12 -62 32 -85 45 -24 12
-44 25 -46 30 -2 4 -12 7 -23 7 -10 0 -19 5 -19 10 0 6 -7 10 -15 10 -8 0 -15
5 -15 10 0 6 -7 10 -16 10 -9 0 -28 8 -42 18 -15 10 -34 22 -42 25 -8 4 -37
20 -65 37 -27 17 -67 38 -87 47 -21 10 -38 21 -38 25 0 5 -9 8 -20 8 -11 0
-20 5 -20 10 0 6 -7 10 -15 10 -8 0 -15 5 -15 10 0 6 -9 10 -19 10 -11 0 -21
4 -23 8 -2 4 -32 23 -68 41 -36 18 -83 44 -105 57 -22 13 -57 31 -77 40 -21 9
-38 19 -38 23 0 4 -16 13 -35 20 l-35 12 0 2550 0 2549 25 0 c14 0 25 4 25 9
0 5 27 14 60 22 33 7 60 16 60 20 0 3 27 12 60 20 33 7 60 16 60 20 0 3 27 12
60 20 33 7 60 16 60 20 0 3 27 12 60 20 33 7 60 17 60 21 0 4 27 13 60 20 33
6 60 15 60 19 0 3 27 12 60 20 33 7 60 16 60 20 0 3 27 12 60 20 33 7 60 16
60 20 0 3 27 12 60 19 33 7 63 16 65 21 3 4 30 13 60 20 30 7 55 15 55 19 0 4
27 13 60 20 33 7 60 16 60 20 0 6 54 23 93 29 4 0 7 -1410 7 -3134z"/>
<path d="M2516 5762 c-3 -5 -45 -14 -93 -21 -48 -7 -97 -17 -108 -21 -11 -4
-54 -13 -95 -20 -41 -6 -91 -15 -110 -20 -87 -22 -131 -30 -164 -30 -19 0 -38
-4 -41 -10 -3 -5 -15 -10 -26 -10 -46 0 -106 -56 -119 -113 -12 -55 -13 -3437
0 -3491 10 -47 69 -106 105 -106 13 0 26 -4 29 -9 3 -4 27 -14 53 -21 27 -7
53 -16 58 -21 6 -4 30 -12 55 -18 25 -7 54 -16 65 -21 11 -5 58 -23 105 -40
47 -18 99 -38 116 -45 18 -8 48 -17 68 -20 20 -4 36 -11 36 -15 0 -11 82 -30
131 -30 46 0 119 41 119 66 0 8 3 14 8 14 31 0 32 40 32 1966 0 1265 -3 1915
-10 1919 -5 3 -10 13 -10 22 0 19 -66 83 -86 83 -8 0 -14 5 -14 10 0 12 -97
14 -104 2z m34 -1647 c0 -799 -3 -1460 -6 -1469 -4 -10 -18 -16 -40 -16 -48 0
-186 -20 -209 -30 -11 -5 -36 -11 -55 -12 l-35 -3 -3 -293 -2 -294 -33 7 c-17
4 -45 13 -61 21 -16 8 -34 14 -40 14 -7 0 -28 9 -49 19 -20 10 -48 22 -62 25
l-25 6 0 1684 0 1684 31 6 c17 3 42 6 55 6 13 0 24 5 24 10 0 6 10 10 22 10
43 0 178 24 178 32 0 4 11 8 25 8 39 0 169 23 175 31 6 8 89 17 103 11 4 -2 7
-657 7 -1457z m0 -1891 l0 -347 -34 6 c-19 3 -50 12 -68 20 -18 9 -44 19 -58
22 -14 4 -38 13 -55 21 -16 7 -46 17 -65 23 -25 6 -29 9 -12 10 l22 1 0 274 0
274 68 11 c37 7 87 16 112 20 25 5 55 9 68 10 l22 1 0 -346z m-313 -230 c-3
-3 -12 -4 -19 -1 -8 3 -5 6 6 6 11 1 17 -2 13 -5z"/>
<path d="M3665 5779 c-11 -6 -35 -28 -52 -48 l-33 -36 0 -1943 0 -1942 22 -35
c34 -51 100 -78 174 -72 32 3 172 12 309 21 138 8 286 20 330 25 44 6 179 16
300 22 121 6 223 13 228 16 4 2 123 11 265 19 141 7 289 18 327 24 39 5 174
14 300 21 127 6 234 13 238 16 5 3 68 9 140 13 114 6 137 11 169 31 20 13 42
38 48 54 7 17 16 38 21 47 5 11 9 711 9 1728 0 1899 4 1785 -64 1832 -17 12
-33 25 -36 29 -5 7 -313 33 -585 50 -82 4 -206 13 -275 19 -69 6 -195 15 -280
20 -85 6 -211 14 -280 20 -69 5 -195 14 -280 20 -85 5 -211 14 -280 21 -343
30 -689 44 -715 28z m375 -187 c63 -6 116 -11 118 -11 1 -1 2 -57 2 -126 0
-77 4 -125 10 -125 6 0 10 -6 10 -14 0 -19 23 -26 88 -26 31 0 91 -5 132 -12
l76 -12 1 -85 c1 -52 5 -87 12 -89 6 -2 11 -15 11 -29 0 -32 29 -74 102 -145
32 -31 58 -63 58 -70 0 -8 9 -20 20 -28 11 -8 20 -20 20 -28 0 -16 116 -132
133 -132 16 0 147 139 147 156 0 8 4 14 8 14 5 0 15 12 23 27 17 32 51 68 73
76 9 4 16 12 16 18 0 6 8 19 18 28 35 32 61 104 68 189 l6 84 52 -6 c129 -14
286 -18 286 -7 0 6 6 11 13 11 24 0 37 53 37 148 0 93 0 94 23 87 22 -7 123
-16 427 -35 85 -6 176 -13 203 -16 l47 -6 0 -1679 c0 -1379 -2 -1681 -13
-1685 -7 -2 -121 -11 -254 -18 -132 -7 -244 -15 -249 -18 -5 -3 -117 -11 -249
-17 -132 -7 -262 -16 -290 -21 -27 -5 -144 -14 -260 -20 -115 -5 -248 -15
-295 -21 -77 -9 -515 -39 -635 -42 l-50 -2 -3 412 -2 412 42 6 c24 3 207 10
408 15 201 6 475 15 610 20 135 6 394 15 575 20 182 6 351 13 378 16 l47 6 0
-371 0 -371 35 0 35 0 0 403 0 402 -190 -3 c-105 -2 -190 1 -190 6 0 5 19 15
43 22 23 8 44 17 47 20 3 3 21 14 41 23 20 9 42 23 49 32 7 8 16 15 21 15 11
0 69 60 69 71 0 5 6 9 14 9 8 0 18 9 21 20 3 11 10 20 14 20 7 0 31 43 31 56
0 2 -12 -8 -28 -23 -15 -15 -40 -34 -55 -42 -15 -8 -27 -18 -27 -22 0 -4 -16
-13 -35 -19 -19 -6 -35 -15 -35 -20 0 -4 -17 -11 -37 -15 -21 -4 -51 -13 -68
-20 -77 -34 -386 -61 -485 -42 -19 4 -74 12 -122 18 l-88 11 0 469 0 469 100
0 100 0 0 -380 c0 -353 1 -381 18 -388 37 -15 265 -7 337 13 39 10 72 22 75
25 3 3 17 11 32 17 81 36 158 131 210 258 28 70 38 265 17 355 -12 55 -53 145
-71 157 -7 4 -19 20 -27 35 -7 15 -27 32 -42 39 -16 6 -29 15 -29 19 0 3 -27
19 -60 33 -81 36 -190 49 -447 54 l-213 4 0 90 0 91 302 -4 c166 -2 293 -1
282 1 -10 2 -23 7 -29 11 -24 18 -274 31 -525 28 l-265 -3 -3 -47 c-3 -39 1
-51 19 -65 38 -31 59 -56 59 -70 0 -7 4 -13 9 -13 11 0 27 -42 42 -111 l12
-56 241 -5 c144 -3 249 -9 261 -15 11 -6 40 -17 65 -24 76 -22 170 -130 170
-194 0 -13 5 -27 10 -30 6 -4 10 -55 10 -120 0 -65 -4 -116 -10 -120 -5 -3
-10 -24 -10 -46 0 -21 -4 -39 -10 -39 -5 0 -10 -9 -10 -20 0 -11 -4 -20 -10
-20 -5 0 -10 -7 -10 -15 0 -46 -126 -146 -203 -160 -20 -4 -40 -11 -43 -16 -3
-5 -27 -9 -54 -9 l-50 0 -2 388 -3 387 -182 3 -183 2 0 -30 c0 -16 -4 -30 -10
-30 -5 0 -10 -7 -10 -15 0 -17 -23 -47 -59 -79 -13 -12 -34 -30 -45 -42 -12
-11 -33 -24 -46 -27 -14 -4 -32 -11 -40 -17 -13 -9 -13 -11 0 -20 22 -15 51
-12 72 7 17 15 18 15 18 -14 0 -22 6 -33 25 -41 14 -6 25 -16 25 -22 0 -5 5
-10 10 -10 19 0 54 -43 79 -95 13 -27 28 -58 33 -67 12 -25 10 -155 -3 -197
-12 -37 -19 -54 -41 -93 -19 -33 -105 -116 -128 -123 -11 -3 -20 -10 -20 -14
0 -4 -22 -14 -50 -21 -27 -7 -50 -17 -50 -20 0 -10 -147 -30 -219 -30 -79 0
-241 20 -241 30 0 3 -22 13 -50 20 -27 7 -50 17 -50 22 0 4 -7 8 -15 8 -21 0
-30 27 -17 53 18 38 31 81 34 111 3 25 -2 30 -37 44 -22 8 -52 24 -67 34 -14
10 -33 18 -42 18 -9 0 -16 5 -16 10 0 23 -30 8 -35 -17 -11 -51 -28 -108 -37
-117 -4 -6 -8 -25 -8 -43 0 -18 -4 -33 -10 -33 -5 0 -10 -10 -10 -23 0 -13 -4
-27 -9 -33 -8 -8 -15 -58 -12 -90 1 -6 15 -17 31 -24 17 -7 30 -16 30 -20 0
-4 18 -13 40 -20 22 -7 40 -16 40 -21 0 -4 16 -10 35 -13 19 -3 51 -9 70 -12
19 -3 38 -10 41 -15 3 -5 22 -9 42 -10 33 -1 34 -2 12 -9 -14 -4 -93 -8 -175
-9 -83 -1 -155 -5 -160 -10 -6 -5 -41 -11 -80 -13 l-70 -3 -3 1413 -2 1413 87
-4 c49 -3 140 -10 203 -15z m822 -2664 l3 -63 38 -9 c20 -5 37 -13 37 -18 0
-4 -89 -8 -197 -8 -108 0 -193 4 -187 8 5 5 35 15 67 22 31 7 57 16 57 20 0 3
16 12 36 19 35 13 46 20 103 68 14 12 29 23 33 23 4 0 8 -28 10 -62z m-954
-615 l-3 -418 -72 -3 -73 -3 0 411 0 410 44 0 c25 0 48 5 51 10 3 6 17 10 31
10 l24 0 -2 -417z"/>
<path d="M4370 4394 c-87 -9 -210 -28 -210 -34 0 -4 -22 -13 -50 -20 -27 -7
-50 -17 -50 -21 0 -3 -15 -12 -32 -20 -61 -24 -88 -48 -88 -79 0 -16 5 -32 10
-35 6 -3 10 -17 10 -31 0 -13 5 -24 10 -24 6 0 10 -15 10 -33 0 -19 3 -37 7
-41 10 -10 33 -78 33 -99 0 -14 8 -34 28 -66 2 -5 54 21 62 30 13 17 121 69
143 69 14 0 27 5 29 11 2 6 36 11 84 12 70 0 83 -2 107 -23 35 -30 35 -69 1
-99 -41 -36 -72 -43 -216 -49 l-138 -5 0 -182 0 -183 148 -4 c160 -4 204 -15
249 -67 30 -34 30 -90 1 -135 -17 -26 -33 -36 -71 -45 -27 -6 -64 -11 -83 -11
-34 0 -50 -20 -16 -20 9 0 51 -5 92 -10 74 -10 220 4 220 21 0 3 13 12 29 18
15 7 35 24 42 39 8 15 16 29 19 32 28 28 43 141 20 155 -5 3 -10 13 -10 21 0
19 -29 54 -75 93 -36 29 -122 52 -222 58 -85 5 -103 9 -104 22 -1 26 -1 145 0
159 1 9 27 12 94 12 97 0 164 15 197 43 11 9 25 17 30 17 6 0 10 4 10 9 0 5 6
16 13 23 23 26 37 58 37 87 0 33 -19 81 -32 81 -4 0 -8 9 -8 20 0 11 -5 20
-12 20 -6 0 -19 7 -29 16 -25 22 -124 33 -211 24 -55 -6 -93 -18 -142 -43 -59
-31 -66 -33 -66 -16 0 10 -4 19 -10 19 -5 0 -10 15 -10 33 0 19 -3 37 -7 41
-4 3 -12 23 -19 42 -11 33 -11 37 7 41 10 3 19 9 19 14 0 5 6 9 13 9 7 0 30 9
50 19 21 11 70 25 110 31 40 6 88 16 108 21 20 5 52 9 70 10 27 0 30 2 14 8
-24 10 -166 19 -215 15z"/>
<path d="M4200 3240 c0 -5 5 -10 10 -10 6 0 10 5 10 10 0 6 -4 10 -10 10 -5 0
-10 -4 -10 -10z"/>
<path d="M5292 1224 c-11 -12 -11 -18 -1 -32 7 -9 14 -18 15 -20 1 -1 9 0 18
4 23 9 22 64 -1 64 -10 -1 -24 -8 -31 -16z"/>
<path d="M5712 1228 c-7 -7 -12 -25 -12 -40 0 -18 -5 -28 -15 -28 -8 0 -15 -9
-15 -20 0 -11 7 -20 15 -20 8 0 15 -8 15 -17 1 -63 22 -169 36 -185 10 -10 31
-18 51 -18 30 0 33 3 33 30 0 22 -5 30 -17 30 -25 0 -43 45 -43 106 0 49 1 52
30 58 21 4 30 11 30 26 0 16 -7 20 -30 20 -28 0 -30 3 -30 35 0 27 -4 35 -18
35 -10 0 -23 -5 -30 -12z"/>
<path d="M6224 1208 c-12 -6 -27 -20 -32 -32 l-11 -21 0 23 c-1 18 -7 22 -31
22 -30 0 -30 0 -30 -57 1 -62 15 -202 22 -208 2 -2 14 -2 26 2 21 5 22 11 22
94 0 78 3 91 22 109 12 11 28 20 35 20 14 0 18 46 6 53 -5 3 -18 0 -29 -5z"/>
<path d="M4888 1202 l-48 -3 1 -97 c1 -53 4 -135 7 -182 6 -78 9 -85 30 -88
21 -3 22 0 22 66 l0 70 50 7 c28 4 50 11 50 15 0 5 9 12 20 15 11 3 20 13 20
21 0 8 5 14 10 14 6 0 10 25 10 55 0 90 -44 117 -172 107z m104 -72 c18 -38
12 -77 -13 -85 -10 -4 -19 -11 -19 -16 0 -6 -12 -9 -27 -7 -27 3 -28 5 -31 71
l-3 67 39 0 c34 0 42 -4 54 -30z"/>
<path d="M4400 1190 c-8 -5 -25 -10 -38 -10 l-22 0 2 -197 3 -198 25 -4 c28
-3 130 18 144 31 6 4 16 8 23 8 18 0 83 66 83 84 0 8 5 18 10 21 6 3 10 39 10
80 0 41 -4 77 -10 80 -5 3 -10 15 -10 26 0 10 -4 19 -10 19 -5 0 -10 6 -10 13
0 37 -158 74 -200 47z m126 -67 c8 -3 14 -11 14 -19 0 -8 4 -14 8 -14 12 0 32
-62 32 -100 0 -34 -33 -98 -59 -115 -22 -13 -95 -32 -109 -27 -17 5 -17 278 1
286 13 5 90 -2 113 -11z"/>
<path d="M5940 1184 c-42 -23 -60 -38 -60 -51 0 -7 -4 -13 -10 -13 -6 0 -10
-29 -10 -67 0 -62 3 -71 32 -102 30 -32 33 -33 94 -29 67 4 88 15 79 40 -5 12
-17 14 -56 10 -54 -5 -89 14 -89 50 0 16 9 18 68 18 91 0 97 5 83 66 -9 38
-19 54 -46 72 -39 25 -50 26 -85 6z m58 -50 c42 -29 23 -54 -44 -54 -27 0 -34
4 -34 19 0 17 33 51 50 51 3 0 16 -7 28 -16z"/>
<path d="M4115 1143 c-16 -8 -31 -17 -33 -18 -2 -2 2 -12 9 -23 10 -16 17 -18
44 -9 18 5 45 7 59 3 21 -5 26 -12 26 -40 0 -25 -6 -35 -25 -44 -14 -7 -32
-12 -40 -12 -9 0 -15 -10 -15 -24 0 -20 7 -25 38 -31 48 -9 62 -21 62 -54 0
-39 -38 -71 -83 -71 -20 0 -39 5 -42 10 -8 13 -35 -13 -35 -32 0 -19 85 -41
110 -28 10 5 27 10 38 10 11 0 31 12 46 26 22 22 26 36 26 81 0 49 -2 55 -30
71 -36 20 -37 29 -7 54 32 28 30 99 -4 127 -30 25 -101 27 -144 4z"/>
<path d="M5496 1137 c-20 -16 -30 -18 -33 -9 -3 6 -13 12 -24 12 -18 0 -19 -9
-19 -130 l0 -130 30 0 30 0 0 99 0 99 30 12 c26 11 33 10 50 -5 17 -15 20 -31
20 -107 l0 -88 30 0 c29 0 30 2 30 43 0 23 -5 73 -10 112 -16 108 -66 143
-134 92z"/>
<path d="M5196 1114 c-9 -8 -16 -20 -16 -25 0 -5 -4 -9 -10 -9 -5 0 -10 9 -10
20 0 15 -7 20 -26 20 -25 0 -26 -2 -20 -37 3 -21 6 -80 6 -130 l0 -93 30 0 30
0 0 94 0 94 30 12 c24 10 30 19 30 41 0 33 -19 38 -44 13z"/>
<path d="M5298 998 c2 -73 6 -135 8 -137 2 -2 15 2 29 9 18 10 23 18 18 29 -4
9 -9 64 -11 124 -3 102 -4 107 -25 107 -22 0 -22 -2 -19 -132z"/>
</g>
</svg>
