<?xml version="1.0" standalone="no"?>
<!DOCTYPE svg PUBLIC "-//W3C//DTD SVG 20010904//EN"
 "http://www.w3.org/TR/2001/REC-SVG-20010904/DTD/svg10.dtd">
<svg version="1.0" xmlns="http://www.w3.org/2000/svg"
 width="840.000000pt" height="844.000000pt" viewBox="0 0 840.000000 844.000000"
 preserveAspectRatio="xMidYMid meet">

<g transform="translate(0.000000,844.000000) scale(0.100000,-0.100000)"
fill="#fff" stroke="none">
<path d="M2590 8430 c0 -5 -13 -10 -29 -10 -17 0 -32 -4 -35 -9 -4 -5 -29 -12
-56 -16 -28 -4 -50 -11 -50 -16 0 -5 -11 -9 -25 -9 -14 0 -25 -4 -25 -9 0 -5
-22 -12 -50 -16 -27 -4 -50 -11 -50 -16 0 -5 -11 -9 -25 -9 -14 0 -25 -4 -25
-10 0 -5 -22 -12 -50 -16 -27 -4 -50 -10 -50 -15 0 -5 -11 -9 -25 -9 -14 0
-25 -4 -25 -9 0 -5 -22 -12 -50 -16 -27 -4 -50 -11 -50 -16 0 -5 -11 -9 -25
-9 -14 0 -25 -4 -25 -9 0 -5 -22 -12 -50 -16 -27 -4 -50 -11 -50 -16 0 -5 -11
-9 -25 -9 -14 0 -25 -4 -25 -9 0 -5 -22 -12 -50 -16 -27 -4 -50 -11 -50 -16 0
-5 -11 -9 -25 -9 -14 0 -25 -4 -25 -9 0 -5 -22 -12 -50 -16 -27 -4 -50 -11
-50 -16 0 -5 -11 -9 -25 -9 -14 0 -25 -4 -25 -9 0 -5 -22 -12 -50 -16 -27 -4
-50 -11 -50 -16 0 -5 -11 -9 -25 -9 -14 0 -25 -4 -25 -9 0 -5 -22 -12 -50 -16
-27 -4 -50 -11 -50 -16 0 -5 -11 -9 -25 -9 -14 0 -25 -4 -25 -9 0 -5 -22 -12
-50 -16 -27 -4 -50 -11 -50 -16 0 -5 -11 -9 -25 -9 -14 0 -25 -4 -25 -9 0 -5
-23 -12 -50 -16 -27 -4 -50 -11 -50 -16 0 -5 -11 -9 -25 -9 -14 0 -25 -4 -25
-9 0 -5 -22 -12 -50 -16 -27 -4 -50 -11 -50 -16 0 -5 -6 -9 -13 -9 -8 0 -20
-11 -27 -25 -7 -14 -17 -25 -22 -25 -4 0 -8 -1483 -8 -3295 0 -1923 4 -3295 9
-3295 5 0 11 -10 15 -23 5 -23 53 -57 80 -57 9 0 16 -4 16 -10 0 -5 6 -10 13
-10 6 0 32 -14 57 -30 25 -16 53 -30 63 -30 9 0 17 -4 17 -10 0 -5 7 -10 15
-10 8 0 15 -4 15 -8 0 -5 18 -16 40 -26 22 -10 40 -22 40 -27 0 -5 8 -9 18 -9
9 0 37 -14 62 -30 25 -16 51 -30 58 -30 6 0 12 -4 12 -10 0 -5 9 -10 20 -10
11 0 20 -4 20 -10 0 -5 6 -10 13 -10 6 0 32 -14 57 -30 25 -16 53 -30 63 -30
9 0 17 -4 17 -10 0 -5 7 -10 15 -10 8 0 15 -4 15 -10 0 -5 11 -12 25 -16 14
-3 25 -10 25 -15 0 -5 7 -9 15 -9 8 0 15 -4 15 -9 0 -5 14 -11 30 -15 17 -3
40 -15 52 -26 13 -12 33 -23 45 -26 13 -4 23 -10 23 -15 0 -5 9 -9 19 -9 11 0
21 -3 23 -7 2 -5 24 -18 50 -31 26 -13 50 -27 53 -33 4 -5 15 -9 26 -9 10 0
19 -4 19 -10 0 -5 7 -10 15 -10 8 0 15 -4 15 -9 0 -5 11 -12 25 -15 14 -4 25
-11 25 -16 0 -6 7 -10 15 -10 8 0 15 -4 15 -9 0 -5 14 -11 30 -15 17 -3 40
-15 53 -26 12 -12 34 -24 50 -27 15 -3 27 -9 27 -14 0 -5 7 -9 15 -9 8 0 15
-4 15 -9 0 -5 13 -12 30 -16 16 -4 36 -15 42 -24 7 -10 28 -22 46 -25 17 -4
32 -12 32 -17 0 -5 7 -9 15 -9 8 0 15 -3 15 -7 0 -5 20 -17 45 -28 25 -11 45
-23 45 -26 0 -4 14 -10 30 -14 17 -4 30 -11 30 -16 0 -5 6 -9 14 -9 7 0 19 -7
26 -15 7 -8 21 -15 31 -15 11 0 19 -4 19 -10 0 -5 7 -10 15 -10 8 0 15 -4 15
-10 0 -5 7 -10 15 -10 8 0 15 -5 15 -11 0 -19 41 -49 67 -49 12 0 23 -4 23
-10 0 -12 47 -13 54 -2 3 5 69 12 147 15 78 4 147 11 153 16 6 5 52 12 101 15
178 10 394 31 401 38 4 5 29 8 55 8 26 0 50 4 53 8 3 5 69 12 147 16 79 3 147
10 153 15 6 5 47 12 91 14 69 5 268 24 430 42 28 4 59 10 70 15 11 5 78 11
150 15 71 3 134 10 140 15 6 5 51 11 100 14 100 5 332 30 440 46 39 6 126 15
195 20 69 5 134 13 145 16 11 4 58 10 105 15 194 19 380 39 450 49 41 6 134
15 205 21 72 5 140 14 153 19 13 6 57 10 98 10 41 0 82 4 92 10 9 5 78 14 152
20 74 5 164 15 200 20 36 6 124 15 195 21 72 5 140 14 153 19 13 6 41 10 62
10 22 0 40 4 40 9 0 5 10 11 23 13 14 2 23 11 25 25 2 13 8 23 13 23 5 0 9
1436 9 3731 l0 3732 -35 33 c-32 32 -38 34 -102 34 -48 0 -63 3 -53 10 10 7
-24 10 -107 10 -67 0 -123 4 -125 9 -1 5 -103 12 -225 16 -123 4 -223 11 -223
16 0 4 -51 10 -112 13 -267 13 -504 32 -517 40 -10 6 -12 6 -7 -2 5 -8 -1 -12
-16 -12 -18 0 -20 2 -8 10 10 7 -23 10 -102 10 -65 0 -118 4 -118 9 0 5 -101
12 -225 16 -123 4 -222 11 -220 16 3 4 -43 10 -102 13 -231 10 -559 32 -569
38 -6 4 -53 8 -105 9 -52 1 -98 4 -104 8 -5 3 -111 12 -235 19 -124 7 -292 18
-375 23 -212 14 -1465 22 -1465 9z m356 -149 c5 -5 51 -11 102 -12 51 -2 95
-6 97 -10 5 -7 389 -25 435 -21 20 2 22 0 10 -8 -11 -7 14 -10 85 -11 55 -1
111 -1 125 0 20 2 22 0 10 -8 -11 -8 13 -11 85 -11 106 -1 329 -15 480 -30 50
-5 189 -15 310 -22 121 -8 225 -16 230 -20 6 -4 59 -8 118 -9 59 -1 107 -6
107 -9 0 -4 89 -11 198 -15 222 -9 241 -10 262 -18 8 -4 60 -8 115 -11 109 -5
469 -31 630 -45 55 -5 181 -14 280 -20 99 -6 209 -13 245 -17 157 -15 520 -41
593 -43 l47 -1 0 -3584 0 -3584 -32 -7 c-18 -4 -63 -9 -101 -12 -40 -3 -65 -9
-61 -14 3 -6 0 -9 -7 -8 -31 5 -300 -14 -305 -22 -3 -5 -37 -9 -75 -9 -39 0
-68 -4 -65 -8 2 -4 -3 -8 -12 -8 -158 -7 -294 -19 -298 -25 -3 -5 -37 -9 -75
-9 -45 0 -68 -4 -64 -10 4 -6 3 -10 -2 -9 -20 5 -293 -14 -293 -21 0 -4 -34
-8 -76 -9 -42 -1 -83 -6 -93 -11 -9 -5 -79 -14 -156 -20 -77 -6 -171 -13 -210
-16 -38 -3 -75 -10 -80 -14 -6 -5 -73 -12 -148 -16 -76 -4 -133 -10 -127 -14
7 -4 -25 -8 -69 -9 -45 -1 -90 -6 -99 -11 -15 -8 -121 -19 -362 -36 -41 -3
-77 -9 -80 -14 -3 -5 -69 -12 -148 -16 -78 -4 -145 -11 -148 -15 -3 -5 -33 -9
-68 -9 -34 0 -66 -4 -71 -9 -6 -5 -74 -13 -152 -17 -78 -4 -140 -11 -137 -16
3 -5 2 -8 -3 -7 -36 6 -153 -3 -148 -11 4 -6 3 -10 -2 -9 -24 6 -292 -15 -287
-22 3 -5 -33 -9 -80 -9 -47 0 -86 -4 -86 -9 0 -5 -62 -12 -137 -15 -76 -4
-146 -11 -155 -16 -10 -6 -43 -10 -73 -10 l-55 0 0 4020 0 4020 33 0 c18 0 37
-4 43 -9z m-326 -4001 c0 -2443 -4 -3920 -9 -3920 -6 0 -13 5 -16 10 -3 6 -15
10 -26 10 -10 0 -19 5 -19 10 0 6 -7 10 -15 10 -8 0 -15 4 -15 9 0 5 -13 12
-30 16 -16 4 -36 15 -42 24 -7 10 -28 22 -46 25 -17 4 -32 11 -32 16 0 5 -18
16 -40 26 -22 10 -40 21 -40 26 0 4 -9 8 -20 8 -11 0 -20 4 -20 9 0 5 -13 12
-30 16 -16 4 -30 11 -30 16 0 5 -6 9 -14 9 -7 0 -19 7 -26 15 -7 8 -21 15 -31
15 -11 0 -19 5 -19 10 0 6 -7 10 -15 10 -8 0 -15 5 -15 10 0 6 -7 10 -15 10
-15 0 -65 27 -75 41 -3 4 -18 11 -33 14 -15 4 -27 11 -27 16 0 5 -9 9 -20 9
-11 0 -20 4 -20 10 0 5 -11 12 -25 16 -14 3 -25 10 -25 15 0 5 -7 9 -15 9 -8
0 -15 4 -15 9 0 5 -14 12 -31 16 -17 4 -39 15 -50 26 -10 10 -30 21 -44 25
-14 3 -25 10 -25 15 0 5 -7 9 -15 9 -8 0 -15 5 -15 10 0 6 -7 10 -15 10 -15 0
-65 27 -75 41 -3 4 -18 11 -33 14 -15 4 -27 11 -27 16 0 5 -9 9 -20 9 -11 0
-20 4 -20 10 0 5 -11 12 -25 16 -14 3 -25 10 -25 15 0 5 -7 9 -15 9 -8 0 -15
4 -15 9 0 5 -14 13 -32 16 -17 4 -38 14 -46 21 -7 8 -20 14 -28 14 -8 0 -14 5
-14 10 0 6 -7 10 -15 10 -8 0 -15 4 -15 9 0 5 -13 12 -29 16 -16 3 -37 15 -46
25 -9 10 -30 22 -46 25 -16 4 -29 11 -29 16 0 5 -7 9 -15 9 -8 0 -15 5 -15 10
0 6 -8 10 -19 10 -10 0 -24 7 -31 15 -7 8 -19 15 -26 15 -12 0 -14 485 -14
3179 0 2889 1 3179 16 3185 9 3 24 6 35 6 10 0 19 5 19 10 0 6 11 10 25 10 14
0 25 4 25 9 0 5 23 12 50 16 28 4 50 11 50 16 0 5 11 9 25 9 14 0 25 4 25 9 0
5 22 12 50 16 28 4 50 11 50 16 0 5 11 9 25 9 14 0 25 4 25 9 0 5 23 12 50 16
28 4 50 11 50 16 0 5 11 9 25 9 14 0 25 4 25 9 0 5 20 12 45 15 24 4 47 11 50
17 4 5 17 9 31 9 13 0 24 4 24 9 0 5 23 12 50 16 28 4 50 11 50 16 0 5 11 9
25 9 14 0 25 4 25 9 0 5 18 11 40 15 23 3 50 11 60 16 11 6 28 14 39 19 10 5
39 12 65 16 25 4 46 11 46 16 0 5 11 9 25 9 14 0 25 4 25 9 0 5 23 12 50 16
28 4 50 11 50 16 0 5 11 9 25 9 14 0 25 4 25 9 0 5 23 12 50 16 28 4 50 11 50
16 0 5 11 9 25 9 14 0 25 4 25 9 0 5 23 12 50 16 28 4 50 11 50 16 0 5 11 9
25 9 14 0 25 4 25 9 0 5 12 12 28 14 15 2 30 5 35 6 4 0 7 -1763 7 -3919z
m2917 -3746 c-3 -3 -12 -4 -19 -1 -8 3 -5 6 6 6 11 1 17 -2 13 -5z"/>
<path d="M3555 7229 c-4 -5 -18 -14 -31 -19 -14 -6 -27 -18 -31 -27 -4 -10
-16 -26 -27 -36 l-21 -19 0 -2442 0 -2441 23 -25 c12 -13 22 -27 22 -31 0 -4
21 -19 48 -34 46 -26 50 -26 177 -21 359 16 561 28 575 35 8 4 51 8 95 10 44
1 94 6 110 11 17 4 122 11 234 15 113 3 212 10 222 16 10 5 79 9 153 9 75 0
136 4 136 9 0 4 35 9 78 10 108 3 389 20 502 32 52 5 190 14 305 19 116 6 220
15 233 20 13 6 82 10 155 10 89 0 127 3 117 10 -12 8 -10 10 8 10 16 0 21 -4
16 -12 -6 -10 -4 -10 7 -2 8 6 66 14 130 16 101 5 120 8 140 27 12 11 30 23
39 26 18 6 50 56 50 79 0 9 5 16 10 16 7 0 10 735 10 2185 0 1450 -3 2185 -10
2185 -5 0 -10 7 -10 16 0 23 -32 73 -50 79 -9 3 -26 14 -39 26 -18 17 -39 21
-134 25 -62 3 -121 10 -132 15 -11 5 -74 11 -140 13 -66 2 -232 12 -370 21
-137 9 -298 19 -358 21 -59 3 -105 9 -102 14 2 4 -101 11 -230 15 -132 4 -232
11 -229 16 3 5 -38 9 -92 9 -53 0 -124 5 -158 10 -33 6 -160 15 -281 21 -382
19 -405 20 -405 28 0 5 -103 12 -230 16 -126 4 -230 11 -230 16 0 13 -277 11
-285 -2z m354 -228 c9 -5 61 -11 114 -12 53 -2 97 -6 97 -11 0 -4 11 -8 25 -8
l25 0 0 -151 c0 -116 3 -154 14 -165 8 -7 16 -19 18 -26 3 -9 41 -15 124 -20
65 -3 148 -9 182 -13 62 -8 64 -9 57 -34 -13 -55 -17 -127 -6 -111 8 11 11 2
11 -37 0 -29 4 -53 9 -53 6 0 13 -20 17 -45 3 -25 10 -45 15 -45 5 0 9 -5 9
-11 0 -7 11 -22 25 -35 14 -13 25 -30 25 -38 0 -8 9 -18 21 -21 27 -9 95 -77
104 -104 3 -12 11 -21 16 -21 5 0 9 -7 9 -15 0 -8 5 -15 10 -15 6 0 10 -7 10
-15 0 -8 36 -51 79 -95 81 -81 114 -97 126 -61 3 11 15 23 25 26 10 3 22 15
25 25 3 10 15 22 25 25 10 3 21 14 24 23 3 9 17 30 31 46 14 16 25 35 25 43 0
7 4 13 9 13 5 0 16 15 25 34 9 19 25 38 36 41 10 3 22 15 25 25 3 10 15 22 25
25 10 3 22 15 25 25 3 10 15 22 26 25 10 4 19 14 19 24 0 10 7 24 15 31 8 7
15 21 15 30 0 10 5 20 11 22 6 2 13 34 16 71 3 37 10 70 14 73 12 7 11 44 -1
44 -5 0 -10 11 -10 25 0 24 1 25 75 23 41 0 75 -5 75 -10 0 -4 63 -8 140 -8
l139 0 31 30 30 29 0 128 0 129 25 2 c14 1 25 -3 25 -8 0 -6 36 -10 85 -10 46
0 115 -5 152 -10 38 -6 167 -15 288 -20 121 -5 237 -12 258 -16 l37 -6 0
-2104 0 -2104 -72 0 c-53 0 -69 -3 -58 -11 12 -8 10 -9 -10 -8 -65 6 -471 -14
-458 -23 9 -6 6 -8 -12 -7 -76 6 -234 -2 -220 -11 12 -8 10 -10 -8 -10 -15 0
-21 4 -16 12 5 8 3 8 -7 2 -8 -5 -113 -15 -234 -22 -121 -7 -272 -17 -335 -22
-63 -6 -216 -15 -340 -20 -124 -6 -239 -15 -256 -20 -17 -6 -67 -10 -112 -10
-45 0 -82 -4 -82 -9 0 -5 -111 -12 -246 -16 -136 -4 -241 -11 -235 -14 6 -4
-27 -9 -74 -10 l-85 -2 0 516 0 515 31 0 c19 0 28 4 24 11 -5 7 10 9 42 8 106
-5 913 14 913 22 0 4 93 8 208 8 114 1 227 5 252 11 25 6 272 14 550 19 278 4
515 12 528 16 l22 7 0 -466 0 -466 45 0 45 0 0 515 c0 356 -3 515 -11 515 -5
0 -7 -5 -4 -10 4 -6 -7 -10 -25 -10 -18 0 -29 4 -25 10 3 6 1 10 -4 10 -6 0
-11 -4 -11 -10 0 -6 -72 -10 -195 -10 -123 0 -195 4 -195 10 0 6 11 10 25 10
14 0 25 4 25 9 0 5 14 12 30 16 17 4 30 11 30 16 0 5 9 9 20 9 11 0 20 4 20
10 0 5 11 12 25 16 14 3 25 9 25 14 0 4 16 15 35 26 19 10 38 26 41 36 3 9 14
20 24 23 10 3 22 15 25 25 3 10 15 22 25 25 10 3 22 15 25 26 4 10 11 19 16
19 5 0 9 7 9 15 0 8 4 15 10 15 5 0 12 11 16 25 3 14 10 25 15 25 5 0 9 5 9
10 0 18 -18 11 -25 -9 -3 -11 -15 -23 -25 -26 -10 -3 -22 -15 -25 -26 -4 -10
-15 -19 -26 -19 -11 0 -22 -7 -25 -15 -4 -8 -14 -15 -24 -15 -10 0 -20 -7 -24
-15 -3 -8 -15 -15 -26 -15 -11 0 -20 -4 -20 -10 0 -5 -7 -10 -15 -10 -8 0 -15
-4 -15 -9 0 -5 -22 -12 -50 -16 -27 -4 -50 -11 -50 -16 0 -5 -11 -9 -25 -9
-14 0 -25 -4 -25 -9 0 -5 -36 -13 -80 -17 -44 -3 -80 -11 -80 -15 0 -5 -38 -9
-85 -9 -47 0 -85 -4 -85 -9 0 -5 -50 -10 -111 -10 -72 -1 -108 2 -104 9 4 6
-19 10 -64 10 -41 0 -71 4 -71 10 0 6 -19 10 -42 10 -24 0 -60 3 -80 6 l-38 7
0 583 0 584 120 0 120 0 2 -482 3 -483 190 1 c183 1 255 8 255 24 0 4 23 10
50 14 28 4 50 11 50 16 0 6 7 10 15 10 8 0 15 5 15 10 0 6 6 10 13 10 8 0 27
11 43 25 16 14 37 28 46 31 9 3 20 14 23 24 3 10 15 22 26 25 10 4 19 14 19
23 0 9 10 26 23 37 29 27 44 55 52 99 4 20 11 36 16 36 5 0 9 13 9 29 0 16 6
31 13 34 9 3 12 55 12 217 0 162 -3 214 -12 218 -7 2 -13 15 -13 28 0 13 -4
24 -9 24 -5 0 -12 14 -16 30 -4 17 -11 30 -16 30 -5 0 -9 9 -9 19 0 11 -9 23
-20 26 -11 3 -20 13 -20 22 0 19 -50 68 -78 77 -12 4 -24 15 -27 25 -3 12 -19
21 -42 26 -35 6 -73 23 -83 37 -3 4 -45 11 -93 14 -48 4 -87 11 -87 15 0 5
-133 9 -295 9 l-295 0 0 115 0 116 328 -5 c180 -2 348 -7 375 -11 32 -5 47 -3
47 4 0 6 -11 11 -24 11 -13 0 -26 4 -28 10 -1 5 -47 12 -101 16 -54 4 -100 11
-103 15 -3 5 -183 9 -400 9 l-394 0 0 -75 c0 -43 4 -75 10 -75 12 0 90 -79 90
-92 0 -5 8 -18 19 -29 21 -23 31 -62 31 -123 0 -30 3 -37 10 -26 8 12 10 9 10
-12 l0 -27 263 -5 c261 -4 357 -11 357 -26 0 -4 24 -10 52 -13 29 -4 54 -11
56 -17 2 -5 10 -10 18 -10 8 0 25 -11 38 -25 13 -14 26 -25 30 -25 9 0 36 -26
36 -35 0 -6 10 -19 38 -50 6 -7 12 -20 12 -28 0 -9 5 -17 10 -19 6 -2 14 -29
17 -60 3 -32 10 -55 14 -52 5 3 9 -54 9 -125 0 -72 -4 -131 -9 -131 -4 0 -11
-26 -14 -57 -3 -32 -11 -59 -17 -61 -5 -2 -10 -15 -10 -28 0 -13 -4 -24 -9
-24 -5 0 -11 -11 -15 -23 -7 -31 -108 -137 -129 -137 -9 0 -17 -4 -17 -10 0
-5 -7 -10 -15 -10 -8 0 -15 -4 -15 -10 0 -5 -16 -12 -35 -16 -19 -3 -38 -10
-41 -15 -3 -5 -16 -9 -30 -9 -13 0 -24 -4 -24 -10 0 -6 -30 -10 -70 -10 l-70
0 2 485 3 485 -227 0 -227 0 -7 -35 c-3 -19 -10 -38 -15 -41 -5 -3 -9 -13 -9
-24 0 -10 -7 -20 -15 -24 -8 -3 -15 -10 -15 -17 0 -9 -32 -42 -92 -93 -24 -21
-74 -46 -93 -46 -8 0 -15 -4 -15 -10 0 -5 -9 -10 -20 -10 -11 0 -20 -4 -20 -9
0 -12 25 -20 74 -23 30 -2 43 3 57 21 l19 23 0 -46 c0 -39 3 -46 19 -46 11 0
23 -9 26 -20 3 -11 15 -20 25 -20 10 0 26 -12 36 -27 18 -28 29 -42 52 -68 6
-7 12 -18 12 -24 0 -6 4 -11 9 -11 6 0 13 -20 17 -45 3 -25 10 -43 14 -40 4 3
8 -42 9 -100 1 -58 -2 -105 -7 -105 -5 0 -12 -22 -16 -48 -3 -27 -15 -58 -26
-70 -11 -12 -20 -25 -20 -30 0 -14 -130 -142 -144 -142 -6 0 -18 -9 -26 -20
-8 -12 -31 -23 -52 -27 -21 -3 -38 -9 -38 -14 0 -5 -8 -9 -18 -9 -10 0 -23 -5
-28 -10 -10 -10 -110 -25 -239 -37 -61 -5 -292 21 -332 38 -13 5 -33 13 -45
18 -13 6 -38 13 -55 16 -18 4 -33 11 -33 16 0 5 -9 9 -20 9 -16 0 -20 7 -20
35 0 19 5 35 10 35 6 0 10 14 10 30 0 17 4 30 9 30 5 0 12 23 16 51 l7 51 42
-4 c22 -3 33 -3 24 -1 -10 3 -18 9 -18 14 0 5 -15 9 -34 9 -18 0 -47 7 -62 15
-16 8 -37 15 -46 15 -10 0 -18 5 -18 10 0 6 -6 10 -14 10 -7 0 -19 7 -26 15
-7 8 -20 15 -30 15 -10 0 -20 6 -23 14 -3 8 -14 13 -24 12 -14 -2 -20 -16 -27
-59 -5 -32 -13 -57 -18 -57 -4 0 -8 -13 -8 -30 0 -16 -4 -30 -9 -30 -5 0 -13
-25 -16 -55 -4 -30 -11 -52 -16 -49 -5 3 -9 -6 -9 -20 0 -14 -4 -27 -9 -30 -5
-3 -12 -27 -16 -53 -4 -27 -11 -51 -17 -54 -14 -9 22 -49 44 -49 10 0 18 -4
18 -8 0 -9 16 -18 85 -48 22 -10 42 -21 45 -24 6 -7 94 -29 153 -37 20 -3 37
-9 37 -14 0 -5 38 -9 85 -9 47 0 85 -4 85 -8 0 -12 -176 -22 -370 -22 -86 0
-160 -4 -166 -9 -5 -5 -49 -11 -98 -14 l-88 -5 6 30 c3 18 2 27 -4 23 -14 -9
-12 8 3 24 10 11 10 13 0 7 -10 -6 -13 340 -13 1716 0 1116 4 1718 10 1708 8
-13 10 -12 10 3 0 15 12 17 111 17 61 0 118 -4 128 -9z m1718 -3047 c-3 -3
-12 -4 -19 -1 -8 3 -5 6 6 6 11 1 17 -2 13 -5z m-543 -382 c18 -7 44 -12 59
-12 15 0 27 -4 27 -10 0 -6 -84 -10 -232 -10 -128 0 -258 -2 -288 -5 -30 -2
-46 -2 -35 1 11 3 24 10 30 15 5 5 24 9 41 9 18 0 36 5 39 10 3 6 18 10 32 10
29 0 146 55 177 83 11 9 23 17 26 17 3 0 24 16 46 36 l39 36 3 -84 3 -84 33
-12z m1359 -69 c-13 -2 -33 -2 -45 0 -13 2 -3 4 22 4 25 0 35 -2 23 -4z
m-2593 -619 l0 -524 -90 0 -90 0 0 515 0 515 66 0 c36 0 63 4 60 8 -3 5 8 9
24 10 l30 1 0 -525z m967 -450 c-3 -3 -12 -4 -19 -1 -8 3 -5 6 6 6 11 1 17 -2
13 -5z"/>
<path d="M4306 5481 c-3 -5 -35 -12 -71 -16 -36 -3 -65 -11 -65 -16 0 -5 -11
-9 -25 -9 -14 0 -25 -4 -25 -9 0 -5 -18 -11 -40 -15 -22 -3 -40 -11 -40 -16 0
-6 -9 -10 -19 -10 -10 0 -21 -7 -25 -15 -3 -8 -15 -15 -26 -15 -11 0 -20 -4
-20 -10 0 -5 -11 -12 -24 -16 -14 -3 -27 -12 -30 -20 -8 -20 5 -104 15 -104 5
0 9 -11 9 -25 0 -14 4 -25 9 -25 5 0 12 -22 16 -50 4 -27 11 -50 16 -50 5 0 9
-11 9 -25 0 -14 4 -25 9 -25 5 0 12 -27 16 -60 4 -33 11 -60 16 -60 5 0 9 -11
9 -25 0 -35 0 -35 68 25 12 11 28 20 36 20 8 0 16 7 20 15 3 8 15 15 26 15 11
0 20 4 20 8 0 5 26 17 58 27 31 9 65 21 74 26 10 5 38 9 62 9 25 0 48 5 51 10
4 7 12 7 25 0 10 -5 32 -10 49 -10 17 0 31 -4 31 -9 0 -5 11 -12 25 -15 22 -6
25 -12 25 -52 0 -33 -6 -51 -22 -67 -36 -36 -106 -57 -186 -57 -41 0 -72 -4
-72 -10 0 -6 -38 -10 -95 -10 l-95 0 0 -224 0 -224 187 -4 c137 -2 188 -7 191
-16 2 -6 15 -12 28 -12 13 0 24 -4 24 -10 0 -5 8 -10 18 -10 18 0 52 -33 52
-50 0 -6 5 -10 10 -10 6 0 10 -27 10 -60 0 -52 -4 -65 -25 -86 -14 -14 -25
-29 -25 -34 0 -5 -22 -12 -50 -16 -27 -4 -50 -10 -50 -15 0 -5 -27 -9 -60 -9
-33 0 -60 -4 -60 -10 0 -5 8 -10 18 -11 9 0 58 -5 107 -10 112 -12 104 -12
201 0 76 9 124 26 124 43 0 5 7 8 15 8 18 0 65 47 65 65 0 8 5 15 10 15 6 0
10 7 10 15 0 8 5 15 10 15 6 0 10 38 10 95 0 57 -4 95 -10 95 -5 0 -10 7 -10
15 0 8 -4 15 -10 15 -5 0 -10 7 -10 15 0 18 -69 85 -87 85 -7 0 -13 4 -13 9 0
12 -78 32 -147 38 -29 3 -53 9 -53 14 0 5 -45 9 -100 9 -64 0 -100 4 -100 11
0 5 5 7 10 4 6 -3 10 4 10 17 0 18 -2 20 -10 8 -7 -12 -9 -10 -7 7 0 12 5 19
9 17 5 -3 8 24 7 60 -1 36 -6 66 -10 66 -5 0 -4 9 3 20 12 18 24 20 131 20 64
0 125 4 135 9 9 6 34 13 55 16 20 3 37 9 37 14 0 4 15 16 34 26 19 11 37 29
41 42 3 13 10 23 15 23 6 0 10 9 10 20 0 11 5 20 10 20 6 0 10 31 10 74 0 66
-2 75 -20 81 -11 3 -20 15 -20 26 0 11 -10 23 -24 29 -13 5 -28 16 -33 25 -6
11 -29 18 -66 22 -31 3 -57 11 -57 17 0 6 -5 4 -10 -4 -6 -10 -10 -11 -10 -2
0 13 -46 17 -54 4 -3 -5 -42 -12 -87 -15 -46 -4 -86 -11 -89 -17 -4 -6 -16
-12 -28 -13 -11 0 -19 -4 -16 -8 2 -4 -13 -10 -33 -14 -20 -4 -43 -14 -50 -23
-12 -16 -13 -15 -19 6 -3 12 -10 22 -14 22 -5 0 -11 22 -15 50 -4 27 -11 52
-16 56 -5 3 -9 14 -9 25 0 10 -4 19 -10 19 -5 0 -10 8 -10 18 0 19 68 62 99
62 12 0 21 5 21 10 0 6 9 10 19 10 11 0 22 4 26 10 3 5 33 12 66 16 32 4 62
11 65 15 3 5 32 9 65 9 33 0 59 4 59 10 0 6 28 11 63 11 34 1 50 4 35 6 -16 2
-28 9 -28 14 0 12 -377 12 -384 0z"/>
<path d="M5587 1540 c-9 -11 -17 -27 -17 -36 0 -37 61 -61 74 -28 9 24 7 74
-3 74 -5 0 -15 2 -23 5 -7 3 -21 -4 -31 -15z"/>
<path d="M6128 1553 c-26 -4 -28 -8 -28 -49 0 -40 -2 -44 -25 -44 -21 0 -25
-5 -25 -30 0 -25 4 -30 25 -30 l25 0 0 -101 c0 -64 4 -98 10 -94 6 3 10 -4 10
-18 0 -37 30 -57 83 -57 47 0 47 0 47 34 0 30 -3 35 -27 38 -28 3 -28 3 -33
100 l-5 97 30 3 c24 2 31 8 33 31 3 26 1 27 -37 27 l-41 0 0 50 c0 28 -3 49
-7 49 -5 -1 -20 -4 -35 -6z"/>
<path d="M6770 1520 c0 -5 -9 -10 -20 -10 -12 0 -25 -10 -32 -25 -6 -14 -15
-25 -20 -25 -4 0 -8 11 -8 25 0 18 -5 25 -19 25 -49 0 -51 -5 -51 -137 0 -80
4 -122 10 -118 6 4 10 -13 10 -45 l0 -51 33 3 32 3 3 118 3 118 39 27 c34 23
39 32 40 65 0 20 -4 37 -10 37 -5 0 -10 -4 -10 -10z"/>
<path d="M5062 1503 l-44 -4 6 -192 c2 -106 8 -211 11 -234 6 -39 10 -43 36
-43 l29 0 0 90 0 90 39 0 c22 0 43 5 46 10 3 6 14 10 24 10 27 0 80 58 87 96
11 57 -5 126 -33 150 -38 33 -76 38 -201 27z m133 -73 c3 -11 11 -20 16 -20 6
0 9 -21 7 -47 -2 -39 -7 -50 -25 -58 -13 -5 -23 -13 -23 -17 0 -5 -16 -8 -35
-8 l-35 0 0 85 0 85 44 0 c36 0 46 -4 51 -20z"/>
<path d="M4455 1490 c-3 -5 -19 -10 -36 -10 l-29 0 0 -197 c0 -109 3 -222 6
-250 l7 -53 78 0 c43 0 81 5 84 10 3 6 17 10 31 10 13 0 24 4 24 9 0 5 12 12
28 15 32 8 102 81 102 107 0 10 5 21 10 24 12 8 14 205 1 205 -5 0 -11 14 -15
31 -6 33 -39 69 -63 69 -7 0 -13 3 -13 8 0 27 -199 48 -215 22z m95 -69 c0 -4
19 -11 42 -14 24 -3 44 -11 46 -17 2 -5 10 -17 18 -24 8 -8 14 -24 14 -35 0
-12 5 -21 11 -21 6 0 9 -25 8 -65 -1 -35 -6 -62 -11 -59 -4 3 -8 -4 -8 -15 0
-12 -4 -21 -10 -21 -5 0 -10 -9 -10 -19 0 -28 -70 -61 -130 -61 l-50 0 0 170
0 170 28 0 c21 0 24 2 12 10 -12 8 -9 10 13 10 15 0 27 -4 27 -9z"/>
<path d="M6410 1490 c0 -5 -9 -10 -19 -10 -21 0 -71 -41 -71 -58 0 -6 -6 -12
-12 -15 -18 -5 -18 -189 0 -195 6 -2 12 -9 12 -16 0 -36 102 -56 203 -40 40 7
50 32 23 60 -17 16 -36 19 -36 4 0 -5 -20 -10 -45 -10 -51 0 -95 32 -95 69 0
19 7 20 98 23 l97 3 -3 55 c-2 30 -7 57 -12 58 -6 2 -10 8 -10 13 0 23 -65 69
-97 69 -18 0 -33 -4 -33 -10z m60 -75 c0 -8 5 -15 10 -15 6 0 10 -8 10 -19 0
-14 -10 -20 -37 -25 -71 -11 -83 -8 -83 19 0 14 5 25 10 25 6 0 10 7 10 15 0
11 11 15 40 15 29 0 40 -4 40 -15z"/>
<path d="M4163 1452 c-24 -2 -43 -7 -43 -13 0 -5 -5 -9 -11 -9 -6 0 -17 -7
-26 -16 -13 -12 -13 -20 -4 -41 10 -21 16 -24 39 -18 15 3 29 11 30 16 6 15
61 10 82 -8 46 -39 9 -102 -65 -110 -25 -3 -45 -10 -45 -15 0 -5 5 -6 10 -3 6
4 10 -7 10 -24 0 -30 1 -31 49 -31 41 0 51 -4 56 -20 3 -11 11 -20 16 -20 5 0
9 -13 9 -30 0 -16 -3 -30 -8 -30 -4 0 -12 -10 -17 -22 -9 -20 -19 -23 -69 -26
-32 -2 -63 1 -69 7 -14 14 -37 -12 -37 -43 0 -21 5 -26 25 -26 14 0 25 -4 25
-10 0 -5 18 -10 40 -10 22 0 40 5 40 10 0 6 3 9 8 9 27 -4 63 3 76 16 8 8 18
15 23 15 17 0 43 59 43 98 0 79 -9 101 -46 108 -38 7 -48 38 -15 47 34 8 72
127 41 127 -5 0 -10 5 -10 10 0 6 -10 21 -22 34 -24 25 -66 34 -135 28z"/>
<path d="M5846 1432 c-3 -9 -15 -23 -26 -30 -18 -11 -20 -10 -20 8 0 16 -7 20
-30 20 l-30 0 0 -119 c0 -65 3 -139 6 -165 6 -44 8 -46 40 -46 l34 0 0 113 c1
111 10 147 39 147 6 0 11 5 11 10 0 6 7 10 15 10 8 0 15 -4 15 -9 0 -5 9 -13
20 -16 19 -6 20 -15 20 -126 l0 -119 40 0 40 0 0 120 c0 73 -4 120 -10 120 -5
0 -10 11 -10 25 0 13 -7 30 -15 37 -9 7 -22 19 -30 26 -7 6 -34 12 -59 12 -34
0 -46 -4 -50 -18z"/>
<path d="M5608 1412 c-25 -2 -38 -8 -38 -18 0 -8 5 -14 10 -14 6 0 10 -57 10
-150 l0 -150 40 0 40 0 0 66 c0 36 -4 63 -9 60 -5 -4 -9 40 -10 101 0 58 -2
106 -3 107 -2 1 -20 0 -40 -2z"/>
<path d="M5456 1394 c-9 -8 -16 -22 -16 -30 0 -8 -4 -14 -10 -14 -5 0 -10 11
-10 25 0 22 -4 25 -36 25 l-36 0 6 -97 c3 -54 7 -109 9 -123 2 -14 5 -44 5
-67 2 -42 3 -43 36 -43 l34 0 4 113 c3 121 13 147 57 147 12 0 21 5 21 11 0 5
5 7 10 4 6 -4 10 8 10 29 0 34 -2 36 -34 36 -19 0 -42 -7 -50 -16z"/>
<path d="M2100 7200 c0 -5 -18 -10 -40 -10 -22 0 -40 -4 -40 -9 0 -4 -35 -11
-77 -15 -43 -4 -93 -11 -110 -16 -18 -6 -48 -14 -66 -20 -18 -5 -68 -13 -110
-16 -42 -4 -77 -11 -77 -15 0 -5 -18 -9 -40 -9 -22 0 -40 -4 -40 -9 0 -5 -36
-13 -80 -17 -44 -3 -83 -11 -86 -15 -3 -5 -14 -9 -25 -9 -47 0 -128 -75 -136
-125 -3 -20 -10 -38 -14 -41 -13 -8 -12 -4314 1 -4314 6 0 10 -13 10 -29 0
-16 7 -36 15 -45 8 -8 15 -19 15 -25 0 -6 3 -11 8 -11 4 0 20 -11 36 -25 16
-14 37 -25 48 -25 10 0 27 -5 38 -10 11 -6 29 -14 40 -20 10 -5 37 -13 60 -16
22 -4 40 -10 40 -15 0 -5 11 -9 25 -9 14 0 25 -4 25 -10 0 -5 10 -10 23 -10
12 0 35 -7 51 -15 15 -8 35 -15 42 -15 8 0 14 -4 14 -9 0 -5 17 -11 38 -14 20
-4 57 -16 81 -28 24 -11 59 -23 77 -26 19 -3 34 -10 34 -14 0 -5 11 -9 25 -9
14 0 25 -4 25 -9 0 -5 20 -12 45 -15 25 -4 45 -11 45 -17 0 -5 10 -9 23 -9 13
0 28 -5 35 -12 7 -7 50 -14 99 -16 83 -4 90 -3 118 22 17 14 33 26 37 26 4 0
10 11 14 25 3 14 10 25 15 25 5 0 9 7 9 15 0 8 5 15 10 15 7 0 10 813 10 2420
0 1607 -3 2420 -10 2420 -5 0 -10 9 -10 19 0 10 -7 21 -15 25 -8 3 -15 15 -15
26 0 13 -7 20 -20 20 -11 0 -23 7 -26 15 -4 8 -15 15 -25 15 -10 0 -19 5 -19
10 0 6 -32 10 -75 10 -43 0 -75 -4 -75 -10z m50 -2057 c0 -1006 -4 -1833 -8
-1839 -4 -7 -52 -15 -110 -19 -56 -4 -105 -11 -108 -16 -3 -5 -24 -9 -48 -9
-23 0 -46 -4 -52 -9 -5 -6 -29 -11 -54 -13 l-45 -3 -3 -368 -2 -369 -33 7
c-17 4 -33 11 -35 16 -2 5 -14 9 -27 9 -13 0 -26 4 -29 9 -3 5 -22 12 -42 16
-20 3 -45 11 -55 16 -11 5 -27 13 -37 18 -10 5 -32 12 -50 16 l-32 7 0 2104
c0 2076 0 2104 19 2104 11 0 23 5 26 10 3 6 26 10 50 10 24 0 46 4 50 9 3 5
41 13 85 17 44 3 78 10 75 13 -2 4 15 8 38 10 23 1 46 6 52 11 5 4 45 11 88
15 42 4 80 11 83 16 3 5 23 9 45 9 21 0 39 4 39 9 0 6 21 12 48 14 26 2 53 4
60 5 9 2 12 -369 12 -1825z m0 -2364 l0 -432 -37 7 c-21 4 -43 8 -50 8 -7 1
-10 5 -7 10 3 4 -4 8 -15 8 -11 0 -22 4 -26 9 -3 6 -26 13 -50 17 -25 3 -45
10 -45 15 0 5 -9 9 -19 9 -11 0 -22 4 -26 9 -3 6 -26 13 -50 17 -45 6 -63 24
-25 24 20 0 20 7 20 340 l0 340 34 0 c19 0 37 4 40 8 3 5 26 9 52 11 26 1 53
5 58 9 11 6 80 18 124 21 l22 1 0 -431z m-380 -289 c0 -5 -9 -10 -20 -10 -11
0 -20 5 -20 10 0 6 9 10 20 10 11 0 20 -4 20 -10z"/>
</g>
</svg>
